Coordinates
version=1
nRows=13
nColumns=34
inDegrees=yes

Units are S.I. units (second, meters, Newtons, ...)
If the header above contains a line with 'inDegrees', this indicates whether rotational values are in degrees (yes) or radians (no).

endheader
time	pelvis_tilt	pelvis_list	pelvis_rotation	pelvis_tx	pelvis_ty	pelvis_tz	hip_flexion_r	hip_adduction_r	hip_rotation_r	knee_angle_r	ankle_angle_r	subtalar_angle_r	mtp_angle_r	hip_flexion_l	hip_adduction_l	hip_rotation_l	knee_angle_l	ankle_angle_l	subtalar_angle_l	mtp_angle_l	lumbar_extension	lumbar_bending	lumbar_rotation	arm_flex_r	arm_add_r	arm_rot_r	elbow_flex_r	pro_sup_r	arm_flex_l	arm_add_l	arm_rot_l	elbow_flex_l	pro_sup_l
      4.45000000	     -9.69824284	     -1.01889048	     -2.78167622	      0.75405195	      0.88874173	     -0.09505385	     31.09649235	    -12.21459817	    -14.41569169	     37.53094419	     16.68099970	      5.36123659	      0.00000000	     31.48800662	    -19.50038680	    -17.98615074	     41.50078944	     17.94646937	     11.10337200	      0.00000000	    -29.26909804	      0.44247600	      0.62320571	     35.24519914	    -15.11806975	     28.58382358	     33.15714232	     86.73482700	     34.66169545	    -15.13533787	     29.43249205	     29.15704150	     76.57353534
      4.46666670	     -9.66475807	     -1.05021219	     -2.94615634	      0.76070563	      0.89810423	     -0.09369550	     28.27932463	    -11.02610858	    -14.61624267	     33.11956609	     15.05211591	      5.41006569	      0.00000000	     28.98461536	    -18.62462816	    -17.88071756	     37.54325868	     15.91066104	     10.19827225	      0.00000000	    -26.96284535	      0.21768693	      0.17850132	     31.49689061	    -14.86586644	     28.51737271	     29.47354680	     85.39738626	     30.69699384	    -15.62215113	     30.25647205	     24.31495605	     75.17552806
      4.48333330	     -9.73095379	     -0.88589822	     -2.82795105	      0.76727722	      0.90300176	     -0.09796435	     25.78547734	    -10.45689488	    -14.55015065	     29.13175639	     13.68342372	      5.38738273	      0.00000000	     26.78868936	    -17.24688819	    -17.53854235	     34.01686418	     14.46485654	      9.04598180	      0.00000000	    -24.32899554	      0.26602389	     -0.69999566	     27.61323446	    -15.23423265	     28.46025695	     26.57248531	     84.11356016	     26.60957017	    -15.76482304	     31.12946771	     20.61456392	     73.74357963
      4.50000000	     -9.53021078	     -0.68207289	     -2.73455775	      0.77797194	      0.91735839	     -0.10177494	     22.55060267	    -10.12184373	    -14.83705167	     24.54553435	     11.58195085	      6.14318462	      0.00000000	     23.75633118	    -15.59420663	    -17.50301884	     29.69283405	     13.18909256	      8.71178145	      0.00000000	    -21.88590855	      0.39993770	     -1.42684674	     23.85574166	    -15.70464500	     28.46198177	     22.98458819	     81.59572621	     22.55290224	    -15.34368866	     32.78767113	     17.17268805	     70.55235423
      4.51666670	     -9.04577363	     -0.52221474	     -2.77246279	      0.78520528	      0.92865928	     -0.09795945	     19.09270408	     -9.48330741	    -14.81146104	     19.90604450	      9.58451296	      6.03500057	      0.00000000	     20.22412531	    -14.07146409	    -17.12369932	     24.76480526	     10.84684345	      7.98030651	      0.00000000	    -19.91362460	      0.38018172	     -2.16274423	     20.09071569	    -16.33637401	     28.47891613	     21.66017597	     80.86180840	     18.36341969	    -15.40538693	     33.33578471	     15.83843961	     69.53292462
      4.53333330	     -9.04392691	     -0.59654513	     -2.80163564	      0.79112101	      0.92818998	     -0.09484295	     16.75414443	     -8.64564017	    -14.69786957	     16.39821638	      8.12383908	      6.11198404	      0.00000000	     17.64436456	    -13.17628585	    -16.83154962	     20.66879058	      9.66646891	      7.77905028	      0.00000000	    -17.35033219	      0.52209795	     -2.57292140	     16.42221068	    -17.13029498	     28.44318127	     20.34249635	     80.56413482	     14.28538297	    -15.22745654	     33.57835305	     14.80087188	     69.13772365
      4.55000000	     -8.31660661	     -0.76645098	     -2.81918683	      0.79746757	      0.93696933	     -0.09357722	     13.73010276	     -7.73927162	    -14.02407261	     13.03180802	      6.76988472	      5.60996300	      0.00000000	     14.35803310	    -12.41928760	    -16.13622261	     16.61348113	      8.02130648	      6.36053399	      0.00000000	    -16.04657055	      0.84658816	     -2.97266158	     13.50040110	    -17.66526977	     27.78137098	     18.62065385	     79.69082646	     11.08705033	    -14.81725402	     33.56972536	     13.91480845	     68.02504879
      4.56666670	     -8.47445969	     -1.13650877	     -3.11418213	      0.79846141	      0.92622576	     -0.09060247	     12.62283595	     -6.59909880	    -12.90516578	     10.87606899	      6.31375783	      4.42672304	      0.00000000	     12.84377182	    -12.30560420	    -15.24309812	     13.95307601	      7.62916149	      4.84222735	      0.00000000	    -13.97940955	      1.28639053	     -3.07590245	     10.32764667	    -18.37814148	     24.79309755	     18.89344257	     75.86488336	      7.29200265	    -14.91908663	     32.01402437	     14.68877918	     62.79226037
      4.58333330	     -8.14159363	     -1.24293168	     -3.41069781	      0.80341894	      0.92451794	     -0.08804468	     11.00844471	     -5.91577185	    -12.08471809	      8.89123714	      6.21114246	      3.88226435	      0.00000000	     10.78037719	    -12.04049227	    -15.00470659	     11.41070734	      6.66984149	      3.55897338	      0.00000000	    -12.41226155	      1.32299349	     -2.97230271	      7.41403909	    -19.30947410	     24.69868746	     18.75114283	     75.46358601	      4.08874061	    -14.90777666	     32.14014014	     14.54897602	     62.20192864
      4.60000000	     -8.06526692	     -1.27744258	     -3.56399915	      0.80775638	      0.93030791	     -0.08473468	      9.65423315	     -5.27791499	    -10.67134735	      6.90421423	      6.01192844	      2.69672872	      0.00000000	      9.26111686	    -11.72976459	    -13.87755173	      9.20998494	      5.66640218	      1.45875030	      0.00000000	    -10.90851056	      1.35319314	     -2.96801563	      4.28825307	    -20.24737776	     23.77432112	     20.00936443	     74.40141454	      1.13115869	    -15.19207371	     31.75805860	     15.34842159	     60.84948600
      4.61666670	     -8.06366681	     -1.46828299	     -3.78497976	      0.80849613	      0.93011597	     -0.08182659	      8.58780737	     -4.55844679	     -9.69790128	      5.15459462	      5.62675540	      1.94737730	      0.00000000	      8.04561479	    -11.77455206	    -13.36182571	      7.43622886	      5.31318321	      0.56382112	      0.00000000	     -9.65760559	      1.51455912	     -2.77656035	      1.05114212	    -20.99549161	     21.00040569	     22.07907429	     71.89951152	     -1.45744423	    -15.50005208	     30.20754739	     16.77014482	     57.88690559
      4.63333330	     -7.88429271	     -1.50305226	     -4.22741300	      0.81153893	      0.93079103	     -0.07952850	      7.56096906	     -4.13242345	     -8.69169768	      3.84243479	      5.50944818	      1.81465934	      0.00000000	      6.51612573	    -11.65250488	    -13.19537403	      5.60158402	      4.68095396	      0.32421183	      0.00000000	     -8.43136637	      1.56622192	     -2.93723177	     -1.00020166	    -21.54987376	     20.75552887	     22.14986069	     71.60001336	     -3.64533794	    -15.62104964	     30.09637655	     16.82619989	     57.52820262
      4.65000000	     -7.42765007	     -1.62357013	     -4.62731016	      0.81462609	      0.93473968	     -0.07499627	      6.22638956	     -3.61442070	     -7.16050323	      2.59730299	      5.10156655	      0.37687314	      0.00000000	      4.91470280	    -11.65555583	    -12.38472589	      4.10384503	      4.49516878	     -0.57044233	      0.00000000	     -8.05041192	      1.74552803	     -2.95888285	     -3.53820176	    -22.23362295	     19.41805019	     24.37996995	     70.45782083	     -6.15904277	    -15.77493702	     28.94985999	     18.45130100	     56.12472610
